<mxfile host="app.diagrams.net" agent="Mozilla/5.0 (X11; Linux x86_64; rv:130.0) Gecko/20100101 Firefox/130.0" version="26.1.2">
  <diagram name="Page-1" id="hAMPuqgzFCE_s8gu88rw">
    <mxGraphModel dx="1434" dy="749" grid="1" gridSize="10" guides="1" tooltips="1" connect="1" arrows="1" fold="1" page="1" pageScale="1" pageWidth="850" pageHeight="1100" math="0" shadow="0">
      <root>
        <mxCell id="0" />
        <mxCell id="1" parent="0" />
        <mxCell id="e3By6pLeLHiN6s33FFKY-30" style="edgeStyle=orthogonalEdgeStyle;rounded=0;orthogonalLoop=1;jettySize=auto;html=1;exitX=0.5;exitY=1;exitDx=0;exitDy=0;" parent="1" target="e3By6pLeLHiN6s33FFKY-5" edge="1">
          <mxGeometry relative="1" as="geometry">
            <mxPoint x="430" y="83" as="sourcePoint" />
          </mxGeometry>
        </mxCell>
        <mxCell id="e3By6pLeLHiN6s33FFKY-3" value="&lt;div&gt;Nombre: Annely Zerpa.&lt;/div&gt;&lt;div&gt;C.I.: 30.118.678&lt;/div&gt;&lt;div&gt;Marzo 2025.&lt;br&gt;&lt;/div&gt;&lt;div&gt;&lt;br&gt;&lt;/div&gt;" style="text;html=1;align=center;verticalAlign=middle;resizable=0;points=[];autosize=1;strokeColor=none;fillColor=none;" parent="1" vertex="1">
          <mxGeometry x="690" y="13" width="150" height="70" as="geometry" />
        </mxCell>
        <mxCell id="e3By6pLeLHiN6s33FFKY-24" style="edgeStyle=orthogonalEdgeStyle;rounded=0;orthogonalLoop=1;jettySize=auto;html=1;exitX=0.5;exitY=1;exitDx=0;exitDy=0;entryX=0.5;entryY=0;entryDx=0;entryDy=0;" parent="1" source="e3By6pLeLHiN6s33FFKY-4" target="e3By6pLeLHiN6s33FFKY-17" edge="1">
          <mxGeometry relative="1" as="geometry" />
        </mxCell>
        <mxCell id="e3By6pLeLHiN6s33FFKY-4" value="Rectas" style="rounded=1;whiteSpace=wrap;html=1;fontSize=14;fillColor=#b1ddf0;strokeColor=#10739e;" parent="1" vertex="1">
          <mxGeometry x="70" y="183" width="200" height="60" as="geometry" />
        </mxCell>
        <mxCell id="e3By6pLeLHiN6s33FFKY-35" style="edgeStyle=orthogonalEdgeStyle;rounded=0;orthogonalLoop=1;jettySize=auto;html=1;exitX=0.5;exitY=1;exitDx=0;exitDy=0;entryX=0.5;entryY=0;entryDx=0;entryDy=0;" parent="1" source="e3By6pLeLHiN6s33FFKY-5" target="e3By6pLeLHiN6s33FFKY-32" edge="1">
          <mxGeometry relative="1" as="geometry" />
        </mxCell>
        <mxCell id="e3By6pLeLHiN6s33FFKY-5" value="Parábolas" style="rounded=1;whiteSpace=wrap;html=1;fontSize=14;fillColor=#b1ddf0;strokeColor=#10739e;" parent="1" vertex="1">
          <mxGeometry x="330" y="183" width="200" height="60" as="geometry" />
        </mxCell>
        <mxCell id="e3By6pLeLHiN6s33FFKY-44" style="edgeStyle=orthogonalEdgeStyle;rounded=0;orthogonalLoop=1;jettySize=auto;html=1;exitX=0.5;exitY=1;exitDx=0;exitDy=0;entryX=0.5;entryY=0;entryDx=0;entryDy=0;" parent="1" source="e3By6pLeLHiN6s33FFKY-6" target="e3By6pLeLHiN6s33FFKY-43" edge="1">
          <mxGeometry relative="1" as="geometry" />
        </mxCell>
        <mxCell id="e3By6pLeLHiN6s33FFKY-6" value="Hipérbolas" style="rounded=1;whiteSpace=wrap;html=1;fontSize=14;fillColor=#b1ddf0;strokeColor=#10739e;" parent="1" vertex="1">
          <mxGeometry x="590" y="183" width="200" height="60" as="geometry" />
        </mxCell>
        <mxCell id="e3By6pLeLHiN6s33FFKY-8" value="" style="endArrow=none;html=1;rounded=0;" parent="1" edge="1">
          <mxGeometry width="50" height="50" relative="1" as="geometry">
            <mxPoint x="171" y="133" as="sourcePoint" />
            <mxPoint x="700" y="133" as="targetPoint" />
          </mxGeometry>
        </mxCell>
        <mxCell id="e3By6pLeLHiN6s33FFKY-11" value="" style="endArrow=classic;html=1;rounded=0;entryX=0.5;entryY=0;entryDx=0;entryDy=0;" parent="1" target="e3By6pLeLHiN6s33FFKY-4" edge="1">
          <mxGeometry width="50" height="50" relative="1" as="geometry">
            <mxPoint x="170" y="133" as="sourcePoint" />
            <mxPoint x="444" y="303" as="targetPoint" />
          </mxGeometry>
        </mxCell>
        <mxCell id="e3By6pLeLHiN6s33FFKY-12" value="" style="endArrow=classic;html=1;rounded=0;" parent="1" target="e3By6pLeLHiN6s33FFKY-6" edge="1">
          <mxGeometry width="50" height="50" relative="1" as="geometry">
            <mxPoint x="690" y="133" as="sourcePoint" />
            <mxPoint x="449" y="343" as="targetPoint" />
          </mxGeometry>
        </mxCell>
        <mxCell id="e3By6pLeLHiN6s33FFKY-14" value="" style="rounded=0;whiteSpace=wrap;html=1;strokeColor=none;" parent="1" vertex="1">
          <mxGeometry x="691" y="123" width="24" height="20" as="geometry" />
        </mxCell>
        <mxCell id="e3By6pLeLHiN6s33FFKY-25" style="edgeStyle=orthogonalEdgeStyle;rounded=0;orthogonalLoop=1;jettySize=auto;html=1;exitX=0.5;exitY=1;exitDx=0;exitDy=0;entryX=0.5;entryY=0;entryDx=0;entryDy=0;" parent="1" source="e3By6pLeLHiN6s33FFKY-17" target="e3By6pLeLHiN6s33FFKY-18" edge="1">
          <mxGeometry relative="1" as="geometry" />
        </mxCell>
        <mxCell id="e3By6pLeLHiN6s33FFKY-17" value="&lt;div&gt;Creación de rectas a partir&lt;/div&gt;&lt;div&gt;de dos puntos.&lt;/div&gt;" style="rounded=1;whiteSpace=wrap;html=1;fontSize=14;fillColor=#E8F6FF;strokeColor=#10739e;" parent="1" vertex="1">
          <mxGeometry x="70" y="303" width="200" height="60" as="geometry" />
        </mxCell>
        <mxCell id="e3By6pLeLHiN6s33FFKY-26" style="edgeStyle=orthogonalEdgeStyle;rounded=0;orthogonalLoop=1;jettySize=auto;html=1;exitX=0.5;exitY=1;exitDx=0;exitDy=0;entryX=0.5;entryY=0;entryDx=0;entryDy=0;" parent="1" source="e3By6pLeLHiN6s33FFKY-18" target="e3By6pLeLHiN6s33FFKY-19" edge="1">
          <mxGeometry relative="1" as="geometry" />
        </mxCell>
        <mxCell id="e3By6pLeLHiN6s33FFKY-18" value="Cálculo de la pendiente y el punto de corte con el eje Y." style="rounded=1;whiteSpace=wrap;html=1;fontSize=14;container=1;fillColor=#E8F6FF;strokeColor=#10739e;" parent="1" vertex="1">
          <mxGeometry x="70" y="423" width="200" height="60" as="geometry" />
        </mxCell>
        <mxCell id="e3By6pLeLHiN6s33FFKY-27" style="edgeStyle=orthogonalEdgeStyle;rounded=0;orthogonalLoop=1;jettySize=auto;html=1;exitX=0.5;exitY=1;exitDx=0;exitDy=0;entryX=0.5;entryY=0;entryDx=0;entryDy=0;" parent="1" source="e3By6pLeLHiN6s33FFKY-19" target="e3By6pLeLHiN6s33FFKY-21" edge="1">
          <mxGeometry relative="1" as="geometry" />
        </mxCell>
        <mxCell id="e3By6pLeLHiN6s33FFKY-19" value="&lt;div&gt;Punto de corte de dos&lt;/div&gt;&lt;div&gt;rectas.&lt;/div&gt;" style="rounded=1;whiteSpace=wrap;html=1;fontSize=14;fillColor=#E8F6FF;strokeColor=#10739e;" parent="1" vertex="1">
          <mxGeometry x="70" y="543" width="200" height="60" as="geometry" />
        </mxCell>
        <mxCell id="e3By6pLeLHiN6s33FFKY-28" style="edgeStyle=orthogonalEdgeStyle;rounded=0;orthogonalLoop=1;jettySize=auto;html=1;exitX=0.5;exitY=1;exitDx=0;exitDy=0;entryX=0.5;entryY=0;entryDx=0;entryDy=0;" parent="1" source="e3By6pLeLHiN6s33FFKY-21" target="e3By6pLeLHiN6s33FFKY-22" edge="1">
          <mxGeometry relative="1" as="geometry" />
        </mxCell>
        <mxCell id="e3By6pLeLHiN6s33FFKY-21" value="Relación entre las pendientes de rectas perpendiculares." style="rounded=1;whiteSpace=wrap;html=1;fontSize=14;fillColor=#E8F6FF;strokeColor=#10739e;" parent="1" vertex="1">
          <mxGeometry x="70" y="663" width="200" height="60" as="geometry" />
        </mxCell>
        <mxCell id="e3By6pLeLHiN6s33FFKY-22" value="&lt;div&gt;Distancia entre dos puntos&lt;/div&gt;&lt;div&gt;del plano.&lt;br&gt;&lt;/div&gt;" style="rounded=1;whiteSpace=wrap;html=1;fontSize=14;fillColor=#E8F6FF;strokeColor=#10739e;" parent="1" vertex="1">
          <mxGeometry x="70" y="783" width="200" height="60" as="geometry" />
        </mxCell>
        <mxCell id="e3By6pLeLHiN6s33FFKY-36" style="edgeStyle=orthogonalEdgeStyle;rounded=0;orthogonalLoop=1;jettySize=auto;html=1;exitX=0.5;exitY=1;exitDx=0;exitDy=0;entryX=0.5;entryY=0;entryDx=0;entryDy=0;" parent="1" source="e3By6pLeLHiN6s33FFKY-32" target="e3By6pLeLHiN6s33FFKY-33" edge="1">
          <mxGeometry relative="1" as="geometry" />
        </mxCell>
        <mxCell id="e3By6pLeLHiN6s33FFKY-32" value="&lt;div&gt;Creación de parábolas a&lt;/div&gt;&lt;div&gt;partir de la multiplicación de dos rectas.&lt;/div&gt;" style="rounded=1;whiteSpace=wrap;html=1;fontSize=14;fillColor=#E8F6FF;strokeColor=#10739e;" parent="1" vertex="1">
          <mxGeometry x="330" y="284" width="200" height="90" as="geometry" />
        </mxCell>
        <mxCell id="e3By6pLeLHiN6s33FFKY-37" style="edgeStyle=orthogonalEdgeStyle;rounded=0;orthogonalLoop=1;jettySize=auto;html=1;exitX=0.5;exitY=1;exitDx=0;exitDy=0;entryX=0.5;entryY=0;entryDx=0;entryDy=0;" parent="1" source="e3By6pLeLHiN6s33FFKY-33" target="e3By6pLeLHiN6s33FFKY-34" edge="1">
          <mxGeometry relative="1" as="geometry" />
        </mxCell>
        <mxCell id="e3By6pLeLHiN6s33FFKY-33" value="&lt;div&gt;Forma vértice de una&lt;/div&gt;&lt;div&gt;parábola.&lt;br&gt;&lt;/div&gt;" style="rounded=1;whiteSpace=wrap;html=1;fontSize=14;fillColor=#E8F6FF;strokeColor=#10739e;" parent="1" vertex="1">
          <mxGeometry x="330" y="423" width="200" height="60" as="geometry" />
        </mxCell>
        <mxCell id="PSFY4HEu5rj7KTwnaCio-10" style="edgeStyle=orthogonalEdgeStyle;rounded=0;orthogonalLoop=1;jettySize=auto;html=1;exitX=0.5;exitY=1;exitDx=0;exitDy=0;entryX=0.5;entryY=0;entryDx=0;entryDy=0;" parent="1" source="e3By6pLeLHiN6s33FFKY-34" target="e3By6pLeLHiN6s33FFKY-38" edge="1">
          <mxGeometry relative="1" as="geometry" />
        </mxCell>
        <mxCell id="e3By6pLeLHiN6s33FFKY-34" value="&lt;div&gt;Forma raíz de una&lt;/div&gt;&lt;div&gt;parábola.&lt;br&gt;&lt;/div&gt;" style="rounded=1;whiteSpace=wrap;html=1;fontSize=14;fillColor=#E8F6FF;strokeColor=#10739e;" parent="1" vertex="1">
          <mxGeometry x="330" y="543" width="200" height="60" as="geometry" />
        </mxCell>
        <mxCell id="e3By6pLeLHiN6s33FFKY-38" value="Cálculo de la pendiente y el punto de corte con el eje Y." style="rounded=1;whiteSpace=wrap;html=1;fontSize=14;fillColor=#E8F6FF;strokeColor=#10739e;" parent="1" vertex="1">
          <mxGeometry x="330" y="663" width="200" height="60" as="geometry" />
        </mxCell>
        <mxCell id="e3By6pLeLHiN6s33FFKY-49" style="edgeStyle=orthogonalEdgeStyle;rounded=0;orthogonalLoop=1;jettySize=auto;html=1;exitX=0.5;exitY=1;exitDx=0;exitDy=0;" parent="1" source="e3By6pLeLHiN6s33FFKY-43" target="e3By6pLeLHiN6s33FFKY-45" edge="1">
          <mxGeometry relative="1" as="geometry" />
        </mxCell>
        <mxCell id="e3By6pLeLHiN6s33FFKY-43" value="&lt;div&gt;Pequeño repaso de cap. 5,&lt;/div&gt;&lt;div&gt;graficación de fórmulas&lt;/div&gt;&lt;div&gt;(x+k)/(x+h)&lt;br&gt;&lt;/div&gt;" style="shape=hexagon;perimeter=hexagonPerimeter2;whiteSpace=wrap;html=1;fixedSize=1;fontSize=14;fillColor=#E8F6FF;strokeColor=#10739e;" parent="1" vertex="1">
          <mxGeometry x="575" y="289" width="230" height="80" as="geometry" />
        </mxCell>
        <mxCell id="e3By6pLeLHiN6s33FFKY-50" style="edgeStyle=orthogonalEdgeStyle;rounded=0;orthogonalLoop=1;jettySize=auto;html=1;exitX=0.5;exitY=1;exitDx=0;exitDy=0;" parent="1" source="e3By6pLeLHiN6s33FFKY-45" edge="1">
          <mxGeometry relative="1" as="geometry">
            <mxPoint x="690" y="540" as="targetPoint" />
          </mxGeometry>
        </mxCell>
        <mxCell id="e3By6pLeLHiN6s33FFKY-45" value="&lt;div&gt;Repaso de asíntotas verticales&lt;/div&gt;&lt;div&gt;y horizontales.&lt;br&gt;&lt;/div&gt;" style="shape=hexagon;perimeter=hexagonPerimeter2;whiteSpace=wrap;html=1;fixedSize=1;fontSize=14;fillColor=#DDF1FF;strokeColor=#10739e;" parent="1" vertex="1">
          <mxGeometry x="575" y="413" width="230" height="80" as="geometry" />
        </mxCell>
        <mxCell id="e3By6pLeLHiN6s33FFKY-51" style="edgeStyle=orthogonalEdgeStyle;rounded=0;orthogonalLoop=1;jettySize=auto;html=1;exitX=0.5;exitY=1;exitDx=0;exitDy=0;" parent="1" source="e3By6pLeLHiN6s33FFKY-46" edge="1">
          <mxGeometry relative="1" as="geometry">
            <mxPoint x="690" y="660" as="targetPoint" />
          </mxGeometry>
        </mxCell>
        <mxCell id="e3By6pLeLHiN6s33FFKY-46" value="&lt;div&gt;Fórmula general de las&lt;/div&gt;&lt;div&gt;hipérbolas.&lt;br&gt;&lt;/div&gt;" style="rounded=1;whiteSpace=wrap;html=1;fontSize=14;fillColor=#E8F6FF;strokeColor=#10739e;" parent="1" vertex="1">
          <mxGeometry x="590" y="543" width="200" height="60" as="geometry" />
        </mxCell>
        <mxCell id="e3By6pLeLHiN6s33FFKY-47" value="&lt;div&gt;Comparación de ambas&lt;/div&gt;&lt;div&gt;fórmulas.&lt;br&gt;&lt;/div&gt;" style="rounded=1;whiteSpace=wrap;html=1;fontSize=14;fillColor=#E8F6FF;strokeColor=#10739e;" parent="1" vertex="1">
          <mxGeometry x="590" y="663" width="200" height="60" as="geometry" />
        </mxCell>
        <mxCell id="e3By6pLeLHiN6s33FFKY-48" value="" style="rounded=0;whiteSpace=wrap;html=1;strokeColor=none;fillColor=#B1DDF0;" parent="1" vertex="1">
          <mxGeometry y="880" width="850" height="220" as="geometry" />
        </mxCell>
        <mxCell id="e3By6pLeLHiN6s33FFKY-53" value="&lt;font style=&quot;font-size: 14px;&quot;&gt;Cada punto irá acompañado con conceptos, ejemplos y ejercicios que ayuden en su comprensión.&lt;br&gt;&lt;/font&gt;" style="text;html=1;align=center;verticalAlign=middle;resizable=0;points=[];autosize=1;strokeColor=none;fillColor=none;" parent="1" vertex="1">
          <mxGeometry x="70" y="945" width="630" height="30" as="geometry" />
        </mxCell>
        <mxCell id="e3By6pLeLHiN6s33FFKY-54" value="&lt;div&gt;Los puntos con &lt;br&gt;&lt;/div&gt;" style="text;html=1;align=center;verticalAlign=middle;resizable=0;points=[];autosize=1;strokeColor=none;fillColor=none;fontSize=14;" parent="1" vertex="1">
          <mxGeometry x="70" y="985" width="120" height="30" as="geometry" />
        </mxCell>
        <mxCell id="e3By6pLeLHiN6s33FFKY-55" value="&lt;font style=&quot;font-size: 14px;&quot;&gt;OBSERVACIONES&lt;/font&gt;" style="text;html=1;align=center;verticalAlign=middle;resizable=0;points=[];autosize=1;strokeColor=none;fillColor=none;fontStyle=1" parent="1" vertex="1">
          <mxGeometry x="65" y="895" width="140" height="30" as="geometry" />
        </mxCell>
        <mxCell id="PSFY4HEu5rj7KTwnaCio-1" value="" style="shape=hexagon;perimeter=hexagonPerimeter2;whiteSpace=wrap;html=1;fixedSize=1;" parent="1" vertex="1">
          <mxGeometry x="190" y="985" width="60" height="30" as="geometry" />
        </mxCell>
        <mxCell id="PSFY4HEu5rj7KTwnaCio-3" value="&lt;div&gt;&lt;font style=&quot;font-size: 14px;&quot;&gt;son temas que no forman parte del capítulo pero que pueden ser nombrados para complementarlo.&lt;br&gt;&lt;/font&gt;&lt;/div&gt;" style="text;whiteSpace=wrap;html=1;" parent="1" vertex="1">
          <mxGeometry x="258" y="985" width="522" height="50" as="geometry" />
        </mxCell>
        <mxCell id="PSFY4HEu5rj7KTwnaCio-5" value="" style="rounded=1;whiteSpace=wrap;html=1;fontSize=14;fillColor=#FCFCFC;strokeColor=#10739e;" parent="1" vertex="1">
          <mxGeometry x="220" y="26" width="420" height="67" as="geometry" />
        </mxCell>
        <mxCell id="PSFY4HEu5rj7KTwnaCio-4" value="&lt;div align=&quot;center&quot;&gt;&lt;font style=&quot;font-size: 15px;&quot;&gt;&lt;b style=&quot;color: rgb(16, 115, 158);&quot;&gt;&lt;font&gt;Esquema del Capitulo 6&lt;/font&gt;&lt;/b&gt;&lt;/font&gt;&lt;/div&gt;&lt;div align=&quot;center&quot;&gt;&lt;font style=&quot;font-size: 15px;&quot;&gt;&lt;b style=&quot;color: rgb(16, 115, 158);&quot;&gt;&lt;font&gt;Métodos de Graficación - Pedro Alson&lt;br&gt;&lt;/font&gt;&lt;/b&gt;&lt;/font&gt;&lt;/div&gt;&lt;div align=&quot;center&quot;&gt;&lt;font style=&quot;font-size: 15px;&quot;&gt;&lt;span style=&quot;color: rgba(0, 0, 0, 0);&quot;&gt;&lt;b&gt;&lt;font&gt;&lt;br&gt;&lt;/font&gt;&lt;/b&gt;&lt;/span&gt;&lt;/font&gt;&lt;/div&gt;" style="text;whiteSpace=wrap;html=1;align=center;" parent="1" vertex="1">
          <mxGeometry x="290" y="38" width="290" height="50" as="geometry" />
        </mxCell>
        <mxCell id="PSFY4HEu5rj7KTwnaCio-8" value="" style="ellipse;whiteSpace=wrap;html=1;aspect=fixed;fillColor=#10739E;strokeColor=none;" parent="1" vertex="1">
          <mxGeometry x="51" y="953" width="10" height="10" as="geometry" />
        </mxCell>
        <mxCell id="PSFY4HEu5rj7KTwnaCio-9" value="" style="ellipse;whiteSpace=wrap;html=1;aspect=fixed;fillColor=#10739E;strokeColor=none;" parent="1" vertex="1">
          <mxGeometry x="51" y="994" width="10" height="10" as="geometry" />
        </mxCell>
      </root>
    </mxGraphModel>
  </diagram>
</mxfile>
